{
    "asset" : {
        "generator" : "Khronos glTF Blender I/O v3.3.32",
        "version" : "2.0"
    },
    "scene" : 0,
    "scenes" : [
        {
            "name" : "Scene",
            "nodes" : [
                0,
                1,
                2,
                3,
                4
            ]
        }
    ],
    "nodes" : [
        {
            "name" : "bool_obj",
            "translation" : [
                0.0005168914794921875,
                0,
                0.00018286705017089844
            ]
        },
        {
            "mesh" : 0,
            "name" : "bool_cube",
            "rotation" : [
                -1,
                0,
                0,
                7.549790126404332e-08
            ],
            "scale" : [
                0.6395027041435242,
                0.6395027041435242,
                0.6395027041435242
            ],
            "translation" : [
                -0.006546787917613983,
                0.004157841205596924,
                0.026654265820980072
            ]
        },
        {
            "mesh" : 1,
            "name" : "bool_cube.001",
            "translation" : [
                -0.14622259140014648,
                0.2850000262260437,
                -0.18703269958496094
            ]
        },
        {
            "name" : "bool_obj.001",
            "translation" : [
                0.004713982343673706,
                0,
                -0.012163802981376648
            ]
        },
        {
            "mesh" : 2,
            "name" : "Cylinder"
        }
    ],
    "meshes" : [
        {
            "name" : "bool_cube_data.006",
            "primitives" : [
                {
                    "attributes" : {
                        "POSITION" : 0,
                        "NORMAL" : 1
                    },
                    "indices" : 2
                }
            ]
        },
        {
            "name" : "bool_cube_data.007",
            "primitives" : [
                {
                    "attributes" : {
                        "POSITION" : 3,
                        "NORMAL" : 4
                    },
                    "indices" : 5
                }
            ]
        },
        {
            "name" : "Cylinder",
            "primitives" : [
                {
                    "attributes" : {
                        "POSITION" : 6,
                        "NORMAL" : 7,
                        "TEXCOORD_0" : 8
                    },
                    "indices" : 9
                }
            ]
        }
    ],
    "accessors" : [
        {
            "bufferView" : 0,
            "componentType" : 5126,
            "count" : 4,
            "max" : [
                0.35711395740509033,
                0,
                0.36011672019958496
            ],
            "min" : [
                -0.35711395740509033,
                0,
                -0.36011672019958496
            ],
            "type" : "VEC3"
        },
        {
            "bufferView" : 1,
            "componentType" : 5126,
            "count" : 4,
            "type" : "VEC3"
        },
        {
            "bufferView" : 2,
            "componentType" : 5123,
            "count" : 6,
            "type" : "SCALAR"
        },
        {
            "bufferView" : 3,
            "componentType" : 5126,
            "count" : 4,
            "max" : [
                0,
                0,
                0
            ],
            "min" : [
                0,
                0,
                0
            ],
            "type" : "VEC3"
        },
        {
            "bufferView" : 4,
            "componentType" : 5126,
            "count" : 4,
            "type" : "VEC3"
        },
        {
            "bufferView" : 5,
            "componentType" : 5123,
            "count" : 6,
            "type" : "SCALAR"
        },
        {
            "bufferView" : 6,
            "componentType" : 5126,
            "count" : 360,
            "max" : [
                1,
                0.2850000262260437,
                1
            ],
            "min" : [
                -1,
                -0.2850000262260437,
                -1
            ],
            "type" : "VEC3"
        },
        {
            "bufferView" : 7,
            "componentType" : 5126,
            "count" : 360,
            "type" : "VEC3"
        },
        {
            "bufferView" : 8,
            "componentType" : 5126,
            "count" : 360,
            "type" : "VEC2"
        },
        {
            "bufferView" : 9,
            "componentType" : 5123,
            "count" : 708,
            "type" : "SCALAR"
        }
    ],
    "bufferViews" : [
        {
            "buffer" : 0,
            "byteLength" : 48,
            "byteOffset" : 0,
            "target" : 34962
        },
        {
            "buffer" : 0,
            "byteLength" : 48,
            "byteOffset" : 48,
            "target" : 34962
        },
        {
            "buffer" : 0,
            "byteLength" : 12,
            "byteOffset" : 96,
            "target" : 34963
        },
        {
            "buffer" : 0,
            "byteLength" : 48,
            "byteOffset" : 108,
            "target" : 34962
        },
        {
            "buffer" : 0,
            "byteLength" : 48,
            "byteOffset" : 156,
            "target" : 34962
        },
        {
            "buffer" : 0,
            "byteLength" : 12,
            "byteOffset" : 204,
            "target" : 34963
        },
        {
            "buffer" : 0,
            "byteLength" : 4320,
            "byteOffset" : 216,
            "target" : 34962
        },
        {
            "buffer" : 0,
            "byteLength" : 4320,
            "byteOffset" : 4536,
            "target" : 34962
        },
        {
            "buffer" : 0,
            "byteLength" : 2880,
            "byteOffset" : 8856,
            "target" : 34962
        },
        {
            "buffer" : 0,
            "byteLength" : 1416,
            "byteOffset" : 11736,
            "target" : 34963
        }
    ],
    "buffers" : [
        {
            "byteLength" : 13152,
            "uri" : "cog.bin"
        }
    ]
}
